<svg xmlns="http://www.w3.org/2000/svg" width="1600" height="620" fill="none" viewBox="0 0 1600 620"><defs><linearGradient id="heroBg" x1="38" x2="1495" y1="24" y2="620" gradientUnits="userSpaceOnUse"><stop stop-color="#F7F3EA"/><stop offset=".56" stop-color="#E8F4F0"/><stop offset="1" stop-color="#D7EBEA"/></linearGradient><linearGradient id="inkBar" x1="1061" x2="1450" y1="83" y2="458" gradientUnits="userSpaceOnUse"><stop stop-color="#14515B"/><stop offset="1" stop-color="#0A2F39"/></linearGradient><linearGradient id="panelFill" x1="102" x2="645" y1="336" y2="520" gradientUnits="userSpaceOnUse"><stop stop-color="#FFF" stop-opacity=".88"/><stop offset="1" stop-color="#F1F7F5" stop-opacity=".96"/></linearGradient><filter id="softShadow" width="1464" height="558" x="68" y="38" color-interpolation-filters="sRGB" filterUnits="userSpaceOnUse"><feDropShadow dx="0" dy="18" flood-color="#0A3942" flood-opacity=".1" stdDeviation="24"/></filter></defs><g filter="url(#softShadow)"><rect width="1496" height="536" x="52" y="42" fill="url(#heroBg)" rx="36"/></g><rect width="443" height="462" x="1007" y="78" fill="url(#inkBar)" rx="34"/><path fill="#0E3E47" fill-opacity=".65" d="M1410 78H1450V540H1326C1372 478 1400 400 1400 314C1400 225 1369 145 1410 78Z"/><g opacity=".42"><path stroke="#1E7B7A" stroke-opacity=".18" stroke-width="2" d="M140 124H882"/><path stroke="#1E7B7A" stroke-opacity=".12" stroke-width="2" d="M140 186H882"/><path stroke="#1E7B7A" stroke-opacity=".12" stroke-width="2" d="M140 248H882"/><path stroke="#1E7B7A" stroke-opacity=".12" stroke-width="2" d="M140 310H882"/><path stroke="#1E7B7A" stroke-opacity=".1" stroke-width="2" d="M170 100V520"/><path stroke="#1E7B7A" stroke-opacity=".08" stroke-width="2" d="M332 100V520"/><path stroke="#1E7B7A" stroke-opacity=".08" stroke-width="2" d="M494 100V520"/><path stroke="#1E7B7A" stroke-opacity=".08" stroke-width="2" d="M656 100V520"/><path stroke="#1E7B7A" stroke-opacity=".08" stroke-width="2" d="M818 100V520"/></g><circle cx="897" cy="121" r="32" fill="#F47D6B" fill-opacity=".18"/><circle cx="970" cy="182" r="12" fill="#14515B" fill-opacity=".1"/><circle cx="1237" cy="129" r="18" fill="#D9F6F1" fill-opacity=".28"/><text x="132" y="132" fill="#14515B" font-family="Segoe UI, PingFang SC, Noto Sans SC, sans-serif" font-size="22" letter-spacing=".28em">AI AGENT SYSTEM / GOVERNED RUNTIME</text><text x="132" y="220" fill="#0F2F38" font-family="Segoe UI, PingFang SC, Noto Sans SC, sans-serif" font-size="78" font-weight="700">VibeSkills</text><text x="132" y="282" fill="#0F2F38" font-family="Segoe UI, PingFang SC, Noto Sans SC, sans-serif" font-size="28">不是另一个 skills 仓库，而是一套把调用、治理、验证与留痕压进同一平面的 AI system。</text><text x="132" y="332" fill="#33545A" font-family="Segoe UI, PingFang SC, Noto Sans SC, sans-serif" font-size="24">主视觉可爱，运行时严格。品牌识别交给小章鱼，执行秩序交给 VCO。</text><rect width="238" height="118" x="132" y="376" fill="url(#panelFill)" stroke="#14515B" stroke-opacity=".1" rx="24"/><rect width="238" height="118" x="388" y="376" fill="url(#panelFill)" stroke="#14515B" stroke-opacity=".1" rx="24"/><rect width="238" height="118" x="644" y="376" fill="url(#panelFill)" stroke="#14515B" stroke-opacity=".1" rx="24"/><text x="160" y="425" fill="#14515B" font-family="Segoe UI, PingFang SC, Noto Sans SC, sans-serif" font-size="19">Bundled Skills</text><text x="160" y="470" fill="#0F2F38" font-family="Segoe UI, PingFang SC, Noto Sans SC, sans-serif" font-size="46" font-weight="700">340</text><text x="160" y="500" fill="#47666B" font-family="Segoe UI, PingFang SC, Noto Sans SC, sans-serif" font-size="17">规模感，不只是目录感</text><text x="416" y="425" fill="#14515B" font-family="Segoe UI, PingFang SC, Noto Sans SC, sans-serif" font-size="19">Upstream Sources</text><text x="416" y="470" fill="#0F2F38" font-family="Segoe UI, PingFang SC, Noto Sans SC, sans-serif" font-size="46" font-weight="700">19</text><text x="416" y="500" fill="#47666B" font-family="Segoe UI, PingFang SC, Noto Sans SC, sans-serif" font-size="17">整合，而不是简单堆叠</text><text x="672" y="425" fill="#14515B" font-family="Segoe UI, PingFang SC, Noto Sans SC, sans-serif" font-size="19">Policies / Contracts</text><text x="672" y="470" fill="#0F2F38" font-family="Segoe UI, PingFang SC, Noto Sans SC, sans-serif" font-size="46" font-weight="700">129</text><text x="672" y="500" fill="#47666B" font-family="Segoe UI, PingFang SC, Noto Sans SC, sans-serif" font-size="17">治理密度已经可见</text><path fill="#1F7D7C" d="M1128 212C1128 156 1164 118 1210 118C1256 118 1292 156 1292 212C1292 248 1267 275 1210 275C1153 275 1128 248 1128 212Z"/><path stroke="#B6FFF4" stroke-linecap="round" stroke-opacity=".35" stroke-width="8" d="M1157 170C1168 149 1187 135 1210 135C1233 135 1252 149 1263 170"/><path fill="#2A8F8E" d="M1115 276C1088 300 1071 331 1071 365C1071 399 1090 421 1120 421C1151 421 1171 401 1171 371V312H1128L1115 276Z"/><path fill="#2A8F8E" d="M1166 292C1143 313 1129 339 1129 367C1129 396 1148 416 1174 416C1200 416 1219 396 1219 368V318H1179L1166 292Z"/><path fill="#2A8F8E" d="M1219 293C1242 313 1256 339 1256 367C1256 396 1275 416 1301 416C1327 416 1346 396 1346 368C1346 340 1332 314 1309 293H1219Z"/><path fill="#2A8F8E" d="M1265 276C1292 300 1309 331 1309 365C1309 399 1328 421 1358 421C1389 421 1408 399 1408 365C1408 331 1391 300 1364 276H1265Z"/><ellipse cx="1180" cy="210" fill="#F8F4EB" rx="18" ry="21"/><ellipse cx="1240" cy="210" fill="#F8F4EB" rx="18" ry="21"/><circle cx="1186" cy="214" r="7" fill="#0F4550"/><circle cx="1234" cy="214" r="7" fill="#0F4550"/><circle cx="1189" cy="210" r="2.5" fill="#F8F4EB"/><circle cx="1237" cy="210" r="2.5" fill="#F8F4EB"/><circle cx="1159" cy="232" r="8" fill="#F47D6B" fill-opacity=".64"/><circle cx="1261" cy="232" r="8" fill="#F47D6B" fill-opacity=".64"/><path stroke="#F8F4EB" stroke-linecap="round" stroke-width="5" d="M1194 246C1198 252 1204 255 1210 255C1216 255 1222 252 1226 246"/><rect width="303" height="48" x="1084" y="447" fill="#F8F4EB" fill-opacity=".12" stroke="#BDEDE6" stroke-opacity=".26" rx="24"/><text x="1120" y="478" fill="#F8F4EB" font-family="Segoe UI, PingFang SC, Noto Sans SC, sans-serif" font-size="20">可爱识别层 × 高密度治理表面</text></svg>